<svg width="35" height="34" viewBox="0 0 35 34" fill="none" xmlns="http://www.w3.org/2000/svg">
<path opacity="0.5" d="M3.37906 25.6258C3.53166 25.2476 3.89861 25 4.30641 25H18.6936C19.1014 25 19.4683 25.2476 19.6209 25.6258L22.4455 32.6258C22.7107 33.2831 22.2269 34 21.5182 34H1.48185C0.773095 34 0.289287 33.2831 0.554499 32.6258L3.37906 25.6258Z" fill="url(#paint0_linear)"/>
<path d="M11.5 8C7.36053 8 4 11.3239 4 15.4182C4 19.8363 8.91223 25.9989 10.7858 28.1886C11.1652 28.6321 11.8348 28.6321 12.2142 28.1886C14.0878 25.9989 19 19.8363 19 15.4182C19 11.3239 15.6395 8 11.5 8ZM11.5 18.6761C9.67507 18.6761 8.20623 17.2233 8.20623 15.4182C8.20623 13.6132 9.67507 12.1604 11.5 12.1604C13.3249 12.1604 14.7938 13.6132 14.7938 15.4182C14.7938 17.2233 13.3027 18.6761 11.5 18.6761Z" fill="url(#paint1_linear)"/>
<defs>
<filter id="filter0_d" x="8" y="0" width="27" height="27" filterUnits="userSpaceOnUse" color-interpolation-filters="sRGB">
<feFlood flood-opacity="0" result="BackgroundImageFix"/>
<feColorMatrix in="SourceAlpha" type="matrix" values="0 0 0 0 0 0 0 0 0 0 0 0 0 0 0 0 0 0 127 0"/>
<feOffset dy="4"/>
<feGaussianBlur stdDeviation="3"/>
<feColorMatrix type="matrix" values="0 0 0 0 0 0 0 0 0 0 0 0 0 0 0 0 0 0 0.25 0"/>
<feBlend mode="normal" in2="BackgroundImageFix" result="effect1_dropShadow"/>
<feBlend mode="normal" in="SourceGraphic" in2="effect1_dropShadow" result="shape"/>
</filter>
<linearGradient id="paint0_linear" x1="11.5" y1="25" x2="11.5" y2="34" gradientUnits="userSpaceOnUse">
<stop stop-color="#F66200"/>
<stop offset="1" stop-color="#FF971C"/>
</linearGradient>
<linearGradient id="paint1_linear" x1="11.5" y1="8" x2="11.5" y2="29" gradientUnits="userSpaceOnUse">
<stop stop-color="#F66200"/>
<stop offset="1" stop-color="#FF971C"/>
</linearGradient>
</defs>
</svg>
