<svg width="13" height="15" viewBox="0 0 13 15" fill="none" xmlns="http://www.w3.org/2000/svg">
<path d="M11.7275 5.83443C11.5483 5.88433 11.4343 6.03404 11.418 6.21702C11.3528 7.26499 10.8315 8.21315 10.0006 8.77872C10.7011 5.15242 8.87649 1.50948 5.47154 0.029016C5.34121 -0.0208873 5.19458 -0.00425287 5.08054 0.0622848C4.9665 0.145457 4.90134 0.261898 4.90134 0.411608C4.90134 2.02515 3.76092 3.38917 2.57163 4.8031C1.36606 6.23366 0.127893 7.69749 0.0138513 9.52727C-0.132773 11.6897 0.893598 13.7358 2.66938 14.9002C2.81601 15 2.99522 14.9834 3.14184 14.8836C3.27217 14.7838 3.33734 14.6008 3.27217 14.4344C2.93005 13.3532 2.99522 12.2221 3.43509 11.2406C3.50026 12.0058 3.76092 12.7377 4.21709 13.3698C4.9665 14.4012 6.17208 15 7.42653 15C7.54058 15 7.67091 15 7.78495 14.9834C9.77253 14.7505 11.4831 13.5362 12.3792 11.7064C13.2752 9.89323 13.1938 7.76402 12.1837 6.01741C12.0859 5.8677 11.8904 5.78453 11.7275 5.83443Z" fill="#FF781C"/>
</svg>
